<svg width="32" height="32" viewBox="0 0 32 32" fill="none" xmlns="http://www.w3.org/2000/svg">
<circle cx="16.4574" cy="15.5511" r="15.5423" fill="white"/>
<path d="M26.6836 10.2352C26.4452 9.33808 25.7362 8.62915 24.8328 8.38447C23.2016 7.94531 16.6644 7.94531 16.6644 7.94531C16.6644 7.94531 10.1271 7.94531 8.49597 8.38447C7.59883 8.62288 6.88989 9.33181 6.64522 10.2352C6.20605 11.8664 6.20605 15.2668 6.20605 15.2668C6.20605 15.2668 6.20605 18.6671 6.64522 20.2983C6.88362 21.1955 7.59255 21.9044 8.49597 22.1491C10.1271 22.5882 16.6644 22.5882 16.6644 22.5882C16.6644 22.5882 23.2016 22.5882 24.8328 22.1491C25.73 21.9107 26.4389 21.2017 26.6836 20.2983C27.1227 18.6671 27.1227 15.2668 27.1227 15.2668C27.1227 15.2668 27.1227 11.8664 26.6836 10.2352ZM14.5752 18.4036V12.1299L20.0083 15.2668L14.5752 18.4036Z" fill="#494949"/>
</svg>
