<svg width="31" height="31" viewBox="0 0 31 31" fill="none" xmlns="http://www.w3.org/2000/svg">
<circle cx="15.5" cy="15.5" r="15.5" fill="white"/>
<path d="M10.8175 12.6289H7.33984V23.8679H10.8175V12.6289Z" fill="#494949"/>
<path d="M9.06582 11.1566C10.2 11.1566 11.1233 10.2286 11.1233 9.08037C11.1233 7.9321 10.2 7.00879 9.06582 7.00879C7.93161 7.00879 7.0083 7.93678 7.0083 9.08037C7.0083 10.224 7.92692 11.1566 9.06582 11.1566Z" fill="#494949"/>
<path d="M16.381 17.9656C16.381 16.3861 17.1074 15.4441 18.4994 15.4441C19.7789 15.4441 20.3929 16.3486 20.3929 17.9656V23.8663H23.8565V16.7517C23.8565 13.7428 22.1505 12.2852 19.7696 12.2852C17.3886 12.2852 16.381 14.1411 16.381 14.1411V12.6273H13.0439V23.8663H16.381V17.9656Z" fill="#494949"/>
</svg>
