<svg width="38" height="41" viewBox="0 0 38 41" fill="none" xmlns="http://www.w3.org/2000/svg">
<g clip-path="url(#clip0_1266_1044)">
<path d="M15.7941 32.4067C15.7941 32.4067 4.84384 16.9627 13.1617 12.4991C17.2599 11.959 17.3727 20.1586 17.3727 20.1586C17.3727 20.1586 20.0181 8.26318 26.0635 10.9592C36.3243 15.5433 15.7941 32.4022 15.7941 32.4022V32.4067Z" fill="#FF2727"/>
<path d="M14.7446 8.03945C14.5972 8.03945 14.4627 7.93679 14.4194 7.78503L12.5936 0.906649C12.5459 0.723642 12.65 0.531708 12.8278 0.482609C13.0099 0.43351 13.1921 0.540635 13.2398 0.723642L15.0655 7.59755C15.1132 7.78056 15.0092 7.97249 14.8314 8.02159C14.801 8.03052 14.7706 8.03499 14.7446 8.03499V8.03945Z" fill="#FF2727"/>
<path d="M20.0182 7.12057C19.9921 7.12057 19.9618 7.12057 19.9358 7.11164C19.7579 7.06255 19.6495 6.87507 19.6929 6.69207L21.2845 0.291296C21.3322 0.103826 21.5187 -0.00329985 21.6921 0.0413359C21.8699 0.0904353 21.9784 0.277906 21.935 0.460912L20.3434 6.85722C20.3044 7.01345 20.1699 7.11611 20.0182 7.11611V7.12057Z" fill="#FF2727"/>
<path d="M27.3906 8.90611C27.3169 8.90611 27.2475 8.88379 27.1868 8.83469C27.0393 8.71864 27.0133 8.49992 27.1261 8.34816C31.0118 3.16148 31.1679 3.1838 31.4151 3.22843C31.5365 3.25075 31.645 3.34449 31.684 3.465C31.7404 3.64355 31.6493 3.83994 31.4758 3.90243C31.0899 4.26845 29.2554 6.63861 27.6552 8.7722C27.5901 8.86147 27.4904 8.90611 27.3906 8.90611Z" fill="#FF2727"/>
<path d="M31.3673 14.7085C31.2069 14.7085 31.0637 14.588 31.0377 14.4184C31.0074 14.2309 31.1331 14.0523 31.3153 14.0211L37.0962 13.0525C37.2826 13.0213 37.4518 13.1507 37.4821 13.3382C37.5125 13.5256 37.3867 13.7042 37.2046 13.7354L31.4237 14.704C31.4237 14.704 31.389 14.704 31.3717 14.704L31.3673 14.7085Z" fill="#FF2727"/>
<path d="M35.7735 23.7826C35.7345 23.7826 35.6955 23.7737 35.6564 23.7603L29.2597 21.3054C29.0862 21.2384 28.9995 21.0375 29.0646 20.859C29.1296 20.6805 29.3204 20.5912 29.4982 20.6537L35.8949 23.1086C36.0684 23.1756 36.1551 23.3765 36.0901 23.555C36.0381 23.6934 35.9123 23.7782 35.7735 23.7782V23.7826Z" fill="#FF2727"/>
<path d="M31.7274 31.5938C31.658 31.5938 31.5843 31.5715 31.5236 31.5224L25.8121 27.0588C25.6646 26.9427 25.6343 26.7285 25.747 26.5767C25.8598 26.425 26.0679 26.3937 26.2197 26.5098L31.9312 30.9733C32.0787 31.0894 32.109 31.3036 31.9963 31.4599C31.9312 31.5491 31.8315 31.5982 31.7274 31.5982V31.5938Z" fill="#FF2727"/>
<path d="M24.9361 37.6606C24.819 37.6606 24.7062 37.5981 24.6455 37.4865L21.9004 32.5766C21.8093 32.4114 21.8613 32.2016 22.0218 32.1034C22.1823 32.0097 22.3904 32.0632 22.4815 32.2329L25.2267 37.1428C25.3177 37.3079 25.2657 37.5177 25.1052 37.6159C25.0532 37.6472 24.9968 37.6606 24.9361 37.6606Z" fill="#FF2727"/>
<path d="M16.4793 40.9673C16.4793 40.9673 16.4663 40.9673 16.4576 40.9673C16.2711 40.954 16.1324 40.7888 16.1454 40.6013L16.5053 34.8388C16.5183 34.6469 16.6788 34.5041 16.8609 34.5175C17.0474 34.5309 17.1862 34.696 17.1732 34.8835L16.8132 40.646C16.8002 40.829 16.6528 40.9673 16.4793 40.9673Z" fill="#FF2727"/>
<path d="M7.94889 36.0581C7.86216 36.0581 7.77542 36.0224 7.71037 35.9554C7.58027 35.8215 7.58027 35.6028 7.71037 35.4644L12.0471 31.0008C12.1772 30.8669 12.3897 30.8669 12.5242 31.0008C12.6543 31.1347 12.6543 31.3534 12.5242 31.4918L8.18741 35.9554C8.12236 36.0224 8.03563 36.0581 7.94889 36.0581Z" fill="#FF2727"/>
<path d="M4.11534 28.9164C3.9809 28.9164 3.8508 28.8316 3.80309 28.6932C3.73804 28.5147 3.82478 28.3138 3.99825 28.2469L9.92224 25.9392C10.0957 25.8723 10.2909 25.9615 10.3559 26.1401C10.421 26.3186 10.3342 26.5195 10.1608 26.5864L4.23677 28.8941C4.19774 28.9075 4.15871 28.9164 4.11967 28.9164H4.11534Z" fill="#FF2727"/>
<path d="M0.862725 20.6586C0.697929 20.6586 0.554816 20.5337 0.528796 20.364C0.502775 20.1766 0.628541 19.998 0.815021 19.9713L7.89693 18.9312C8.08341 18.9045 8.25254 19.0339 8.27856 19.2258C8.30458 19.4133 8.17882 19.5918 7.99234 19.6186L0.91043 20.6586C0.91043 20.6586 0.880072 20.6586 0.862725 20.6586Z" fill="#FF2727"/>
<path d="M8.95946 14.226C8.89875 14.226 8.83369 14.2082 8.77732 14.1724L2.20281 9.816C2.04668 9.71333 2.00332 9.49908 2.10306 9.33839C2.20281 9.1777 2.41097 9.13307 2.56709 9.23573L9.14594 13.5877C9.30206 13.6904 9.34543 13.9046 9.24569 14.0653C9.18063 14.168 9.07222 14.226 8.9638 14.226H8.95946Z" fill="#FF2727"/>
<path d="M10.9716 9.8749C10.8719 9.8749 10.7721 9.8258 10.7028 9.73653L6.8127 4.46504C6.69994 4.31328 6.7303 4.09457 6.87775 3.97851C7.0252 3.86246 7.2377 3.8937 7.34612 4.04547L11.2405 9.31695C11.3533 9.46871 11.3229 9.68743 11.1755 9.80348C11.1147 9.85258 11.0454 9.8749 10.9716 9.8749Z" fill="#FF2727"/>
<path d="M27.3907 16.19C27.2172 16.19 27.0697 16.0516 27.0567 15.8686C26.8356 12.8602 24.9361 12.7173 24.9144 12.7173C24.7279 12.7084 24.5891 12.5433 24.5978 12.3513C24.6065 12.1594 24.7799 12.021 24.9534 12.0255C24.9794 12.0255 27.4601 12.2085 27.7289 15.8151C27.7419 16.007 27.6032 16.1722 27.421 16.1856C27.4123 16.1856 27.4037 16.1856 27.395 16.1856L27.3907 16.19Z" fill="#F8FEFF"/>
</g>
<defs>
<clipPath id="clip0_1266_1044">
<rect width="36.9578" height="40.9355" fill="white" transform="translate(0.528809 0.0322266)"/>
</clipPath>
</defs>
</svg>
