<svg width="33" height="32" viewBox="0 0 33 32" fill="none" xmlns="http://www.w3.org/2000/svg">
<circle cx="16.5003" cy="15.5511" r="15.5423" fill="white"/>
<path d="M16.785 7.74366C19.42 7.74366 19.7337 7.75621 20.7751 7.80012C21.735 7.84404 22.262 8.00715 22.6071 8.1389C23.0651 8.32084 23.3976 8.53415 23.7426 8.87921C24.0877 9.22426 24.301 9.55677 24.4829 10.0148C24.6209 10.3598 24.7778 10.8868 24.8217 11.8467C24.8719 12.8881 24.8782 13.2018 24.8782 15.8368C24.8782 18.4718 24.8656 18.7855 24.8217 19.8269C24.7778 20.7868 24.6147 21.3138 24.4829 21.6588C24.301 22.1168 24.0877 22.4493 23.7426 22.7944C23.3976 23.1394 23.0651 23.3527 22.6071 23.5347C22.262 23.6727 21.735 23.8295 20.7751 23.8735C19.7337 23.9237 19.42 23.9299 16.785 23.9299C14.1501 23.9299 13.8364 23.9174 12.7949 23.8735C11.835 23.8295 11.3081 23.6664 10.963 23.5347C10.505 23.3527 10.1725 23.1394 9.82745 22.7944C9.48239 22.4493 9.26908 22.1168 9.08715 21.6588C8.94912 21.3138 8.79228 20.7868 8.74836 19.8269C8.69817 18.7855 8.6919 18.4718 8.6919 15.8368C8.6919 13.2018 8.70445 12.8881 8.74836 11.8467C8.79228 10.8868 8.9554 10.3598 9.08715 10.0148C9.26908 9.55677 9.48239 9.22426 9.82745 8.87921C10.1725 8.53415 10.505 8.32084 10.963 8.1389C11.3081 8.00088 11.835 7.84404 12.7949 7.80012C13.8364 7.74993 14.1501 7.74366 16.785 7.74366ZM16.785 5.96191C14.1061 5.96191 13.7674 5.97446 12.7134 6.01838C11.6594 6.06857 10.9442 6.23168 10.3168 6.47636C9.66433 6.72731 9.11851 7.06609 8.56642 7.61818C8.01434 8.17027 7.68183 8.71609 7.4246 9.36856C7.17993 9.99593 7.01054 10.7174 6.96662 11.7651C6.91643 12.8191 6.91016 13.1516 6.91016 15.8368C6.91016 18.522 6.9227 18.8545 6.96662 19.9085C7.01681 20.9624 7.17993 21.6776 7.4246 22.305C7.67555 22.9575 8.01434 23.5033 8.56642 24.0554C9.11851 24.6075 9.66433 24.94 10.3168 25.1972C10.9442 25.4419 11.6657 25.6113 12.7134 25.6552C13.7674 25.7054 14.0999 25.7117 16.785 25.7117C19.4702 25.7117 19.8027 25.6991 20.8567 25.6552C21.9107 25.605 22.6259 25.4419 23.2533 25.1972C23.9057 24.9463 24.4515 24.6075 25.0036 24.0554C25.5557 23.5033 25.8882 22.9575 26.1455 22.305C26.3901 21.6776 26.5595 20.9562 26.6034 19.9085C26.6536 18.8545 26.6599 18.522 26.6599 15.8368C26.6599 13.1516 26.6474 12.8191 26.6034 11.7651C26.5533 10.7111 26.3901 9.99593 26.1455 9.36856C25.8945 8.71609 25.5557 8.17027 25.0036 7.61818C24.4515 7.06609 23.9057 6.73358 23.2533 6.47636C22.6259 6.23168 21.9044 6.06229 20.8567 6.01838C19.8027 5.96819 19.4702 5.96191 16.785 5.96191Z" fill="#494949"/>
<path d="M16.785 10.7676C13.9869 10.7676 11.7158 13.0387 11.7158 15.8368C11.7158 18.6349 13.9869 20.906 16.785 20.906C19.5831 20.906 21.8542 18.6349 21.8542 15.8368C21.8542 13.0387 19.5831 10.7676 16.785 10.7676ZM16.785 19.1305C14.9656 19.1305 13.4913 17.6562 13.4913 15.8368C13.4913 14.0174 14.9656 12.543 16.785 12.543C18.6044 12.543 20.0787 14.0174 20.0787 15.8368C20.0787 17.6562 18.6044 19.1305 16.785 19.1305Z" fill="#494949"/>
<path d="M22.0549 11.7523C22.7097 11.7523 23.2406 11.2215 23.2406 10.5666C23.2406 9.91173 22.7097 9.38086 22.0549 9.38086C21.4 9.38086 20.8691 9.91173 20.8691 10.5666C20.8691 11.2215 21.4 11.7523 22.0549 11.7523Z" fill="#494949"/>
</svg>
